<svg width="20" height="20" viewBox="0 0 20 20" fill="none" xmlns="http://www.w3.org/2000/svg">
<path d="M18 10.1818C18 9.61453 17.9481 9.06908 17.8516 8.54544H10.1633V11.6436H14.5566C14.3636 12.64 13.7848 13.4836 12.9165 14.0509V16.0654H15.5659C17.1095 14.6691 18 12.6182 18 10.1818Z" fill="#4285F4"/>
<path d="M10.1633 18C12.3673 18 14.2152 17.2873 15.5659 16.0654L12.9165 14.0509C12.1892 14.5309 11.2616 14.8218 10.1633 14.8218C8.04081 14.8218 6.23748 13.4182 5.59184 11.5273H2.87569V13.5927C4.21892 16.2036 6.97217 18 10.1633 18Z" fill="#34A853"/>
<path d="M5.59184 11.52C5.42857 11.04 5.3321 10.5309 5.3321 10C5.3321 9.4691 5.42857 8.96001 5.59184 8.48001V6.41455H2.8757C2.31911 7.49092 2 8.70546 2 10C2 11.2946 2.31911 12.5091 2.8757 13.5855L4.99072 11.9709L5.59184 11.52Z" fill="#FBBC05"/>
<path d="M10.1633 5.18546C11.3655 5.18546 12.4341 5.59273 13.2876 6.37818L15.6252 4.08727C14.2078 2.79273 12.3673 2 10.1633 2C6.97217 2 4.21892 3.79636 2.87569 6.41455L5.59184 8.48C6.23748 6.58909 8.04081 5.18546 10.1633 5.18546Z" fill="#EA4335"/>
</svg>
